<?xml version="1.0" standalone="no"?><!DOCTYPE svg PUBLIC "-//W3C//DTD SVG 1.1//EN" "http://www.w3.org/Graphics/SVG/1.1/DTD/svg11.dtd"><svg t="1649308019418" class="icon" viewBox="0 0 1024 1024" version="1.1" xmlns="http://www.w3.org/2000/svg" p-id="1635" xmlns:xlink="http://www.w3.org/1999/xlink" width="32" height="32"><defs><style type="text/css">@font-face { font-family: feedback-iconfont; src: url("//at.alicdn.com/t/font_1031158_u69w8yhxdu.woff2?t=1630033759944") format("woff2"), url("//at.alicdn.com/t/font_1031158_u69w8yhxdu.woff?t=1630033759944") format("woff"), url("//at.alicdn.com/t/font_1031158_u69w8yhxdu.ttf?t=1630033759944") format("truetype"); }
</style></defs><path d="M819.478953 601.977267 890.367467 460.201264 741.964532 451.481671 730.626299 392.71729 607.700619 522.041704 682.165588 257.19164 613.496625 277.553387 510.50495 123.43017 407.487691 277.553387 338.868871 257.19164 413.283698 522.041704 290.384623 392.71729 279.045367 451.481671 130.669038 460.201264 201.530946 601.977267 161.311943 643.403772 395.189597 708.320271 349.554234 784.523837 494.050186 752.268202 461.138612 858.358449 511.437182 882.550431 511.437182 884.163161 513.101077 883.357819 514.788509 884.163161 514.788509 882.550431 565.112662 858.358449 532.176528 752.268202 671.456688 784.523837 625.794719 708.320271 859.69898 643.403772Z" p-id="1636" fill="#efb336"></path></svg>